<svg xmlns="http://www.w3.org/2000/svg" width="78.482" height="71.959" viewBox="0 0 78.482 71.959">
  <g id="noun_maintenance_3825643" transform="translate(-2.943 -2.439)">
    <g id="Group_128" data-name="Group 128" transform="translate(1 -2)">
      <path id="Path_410" data-name="Path 410" d="M39.312,61.879H8.464V33.159H19.155l-3.667,2.891A1.305,1.305,0,1,0,17.1,38.1L31.166,27.014l13.067,9.8A1.305,1.305,0,0,0,45.8,34.726l-2.089-1.567h9.138v2.128a1.305,1.305,0,0,0,2.611,0V33.159h2.611a1.315,1.315,0,0,0,1.113-1.988L55.6,25.326H72.431v14.66a1.305,1.305,0,1,0,2.611,0V25.326h3.916a1.315,1.315,0,0,0,1.1-2.011L68.308,5.039a1.3,1.3,0,0,0-1.1-.6H33.267a1.3,1.3,0,0,0-1.1.6l-4.653,7.233H14.455a1.306,1.306,0,0,0-1.113.623L2.129,31.171a1.315,1.315,0,0,0,1.113,1.988H5.853V63.185A1.305,1.305,0,0,0,7.158,64.49H39.312a1.306,1.306,0,1,0,0-2.611ZM33.98,7.05H66.5L76.568,22.715H54L47.97,12.894a1.306,1.306,0,0,0-1.113-.623H30.62ZM15.186,14.883H46.127l9.612,15.666H40.23l-8.3-6.225a1.3,1.3,0,0,0-1.592.019l-7.871,6.206H5.574Z" fill="#336807"/>
      <path id="Path_411" data-name="Path 411" d="M50.808,37.605c-11.924-1.952-15.275,15.273-3.492,17.935C59.232,57.5,62.6,40.27,50.808,37.605Zm4.66,10.215c-1.9,8.41-14.192,6.026-12.811-2.5,1.907-8.42,14.206-6.014,12.811,2.5Z" transform="translate(11.622 10.084)" fill="#7daf14"/>
      <path id="Path_412" data-name="Path 412" d="M70.244,48.709l-3.056-.6a15.43,15.43,0,0,0-.865-4.282L68.9,42.093a1.305,1.305,0,0,0,.352-1.812l-2.918-4.33a1.306,1.306,0,0,0-1.812-.352l-2.578,1.738A15.439,15.439,0,0,0,58.3,34.927l.595-3.057a1.3,1.3,0,0,0-1.031-1.53l-5.126-1a1.3,1.3,0,0,0-1.531,1.032l-.6,3.056a15.434,15.434,0,0,0-4.282.865l-1.738-2.58a1.306,1.306,0,0,0-1.812-.352L38.451,34.28a1.313,1.313,0,0,0-.352,1.812l1.738,2.578a15.447,15.447,0,0,0-2.409,3.644l-3.056-.6a1.313,1.313,0,0,0-1.531,1.031l-1,5.126a1.3,1.3,0,0,0,1.032,1.531l3.056.6a15.434,15.434,0,0,0,.865,4.282l-2.579,1.738a1.305,1.305,0,0,0-.352,1.812l2.918,4.33a1.306,1.306,0,0,0,1.812.352l2.578-1.738a15.44,15.44,0,0,0,3.644,2.409l-.6,3.057a1.3,1.3,0,0,0,1.032,1.531l5.126,1a1.307,1.307,0,0,0,1.531-1.032l.6-3.056a15.434,15.434,0,0,0,4.282-.865l1.738,2.58a1.311,1.311,0,0,0,1.812.352l4.331-2.919a1.306,1.306,0,0,0,.352-1.812l-1.738-2.578A15.43,15.43,0,0,0,65.691,55.8l3.057.595a1.307,1.307,0,0,0,1.53-1.031l1-5.126a1.312,1.312,0,0,0-1.032-1.531Zm-2.279,4.876-2.805-.546a1.3,1.3,0,0,0-1.464.8,12.9,12.9,0,0,1-3,4.53,1.3,1.3,0,0,0-.169,1.662L62.124,62.4l-2.165,1.46-1.595-2.366a1.305,1.305,0,0,0-1.6-.467A12.894,12.894,0,0,1,51.578,62.1a1.327,1.327,0,0,0-1.437,1.056l-.546,2.8-2.563-.5.546-2.805a1.305,1.305,0,0,0-.8-1.465,12.886,12.886,0,0,1-4.53-3,1.307,1.307,0,0,0-1.663-.169l-2.365,1.594-1.459-2.165,2.366-1.595a1.305,1.305,0,0,0,.467-1.6,12.894,12.894,0,0,1-1.076-5.324,1.306,1.306,0,0,0-1.056-1.3l-2.8-.546.5-2.562,2.8.546a1.306,1.306,0,0,0,1.465-.8,12.912,12.912,0,0,1,3-4.531,1.306,1.306,0,0,0,.169-1.662l-1.594-2.365,2.165-1.46,1.595,2.366a1.308,1.308,0,0,0,1.6.467,12.894,12.894,0,0,1,5.182-1.077,1.327,1.327,0,0,0,1.437-1.056l.546-2.8,2.562.5-.546,2.805a1.3,1.3,0,0,0,.8,1.464,12.887,12.887,0,0,1,4.53,3,1.306,1.306,0,0,0,1.663.169L64.9,38.493l1.459,2.165-2.366,1.6a1.306,1.306,0,0,0-.467,1.6A12.884,12.884,0,0,1,64.6,49.181a1.306,1.306,0,0,0,1.056,1.3l2.8.546Z" transform="translate(9.125 7.599)" fill="#7bad13"/>
    </g>
  </g>
</svg>
