<svg xmlns="http://www.w3.org/2000/svg" width="73.082" height="73.082" viewBox="0 0 73.082 73.082">
  <g id="noun_maintenance_2955913" transform="translate(-1 -1)">
    <path id="Path_418" data-name="Path 418" d="M72.9,21.038H68.8a19.776,19.776,0,0,0-2.365-5.723l2.9-2.9a1.179,1.179,0,0,0,0-1.667l-5-5a1.213,1.213,0,0,0-1.667,0l-2.9,2.9a19.775,19.775,0,0,0-5.723-2.365V2.179A1.179,1.179,0,0,0,52.864,1H45.792a1.179,1.179,0,0,0-1.179,1.179V6.284A19.776,19.776,0,0,0,38.89,8.649l-2.9-2.9a1.179,1.179,0,0,0-1.667,0l-5,5a1.179,1.179,0,0,0,0,1.667l2.9,2.9a19.775,19.775,0,0,0-2.365,5.723H25.753a1.179,1.179,0,0,0-1.179,1.179v2.357h-9.43a7.079,7.079,0,0,0-7.072,7.072v3.536H6.894A3.536,3.536,0,0,0,3.357,38.72v2.357a3.536,3.536,0,0,0,3.536,3.536H8.072V46.2a7.072,7.072,0,0,0-4.715,6.66v7.072H2.179A1.179,1.179,0,0,0,1,61.115V65.83a1.179,1.179,0,0,0,1.179,1.179H5.715v3.536a3.536,3.536,0,0,0,3.536,3.536h4.715A3.536,3.536,0,0,0,17.5,70.545V67.009h28.29v3.536a3.536,3.536,0,0,0,3.536,3.536h4.715a3.536,3.536,0,0,0,3.536-3.536V67.009h3.536a1.179,1.179,0,0,0,1.179-1.179V61.115a1.179,1.179,0,0,0-1.179-1.179H59.937V52.864A7.079,7.079,0,0,0,54.043,45.9v-.675a19.776,19.776,0,0,0,5.723-2.365l2.9,2.9a1.179,1.179,0,0,0,1.667,0l5-5a1.179,1.179,0,0,0,0-1.667l-2.9-2.9A19.776,19.776,0,0,0,68.8,30.468H72.9a1.179,1.179,0,0,0,1.179-1.179V22.217A1.179,1.179,0,0,0,72.9,21.038ZM6.894,42.256a1.179,1.179,0,0,1-1.179-1.179V38.72a1.179,1.179,0,0,1,1.179-1.179H8.072v4.715ZM5.715,55.222h7.072v4.715H5.715Zm9.43,15.324a1.179,1.179,0,0,1-1.179,1.179H9.251a1.179,1.179,0,0,1-1.179-1.179V67.009h7.072Zm7.072-5.894H3.357V62.294h18.86Zm21.217-7.072v2.357H19.86V57.579ZM19.86,55.222V52.864H43.434v2.357Zm18.86,9.43H24.575V62.294H38.72Zm16.5,5.894a1.179,1.179,0,0,1-1.179,1.179H49.328a1.179,1.179,0,0,1-1.179-1.179V67.009h7.072Zm4.715-8.251v2.357H41.077V62.294Zm-9.43-2.357V55.222h7.072v4.715Zm7.072-7.072H49.328a1.179,1.179,0,0,0-1.179,1.179v5.894H45.792V51.686a1.179,1.179,0,0,0-1.179-1.179H18.681A1.179,1.179,0,0,0,17.5,51.686v8.251H15.145V54.043a1.179,1.179,0,0,0-1.179-1.179H5.715a4.715,4.715,0,0,1,4.715-4.715H31.647V45.792H10.43V31.647a4.715,4.715,0,0,1,4.715-4.715h9.43V29.29a1.179,1.179,0,0,0,1.179,1.179h4.106a19.776,19.776,0,0,0,2.365,5.723l-2.9,2.9a1.179,1.179,0,0,0,0,1.667l.319.321h-14.5V32.826a1.179,1.179,0,0,1,1.179-1.179h5.894V29.29H16.324a3.536,3.536,0,0,0-3.536,3.536v9.43a1.179,1.179,0,0,0,1.179,1.179H32l2.323,2.323a1.213,1.213,0,0,0,1.667,0l2.9-2.9a19.776,19.776,0,0,0,5.724,2.365v.569H38.72v2.357h5.894v1.179a1.179,1.179,0,0,0,1.179,1.179h7.072a1.179,1.179,0,0,0,1.179-1.179V48.317A4.715,4.715,0,0,1,57.579,52.864ZM71.724,28.111H67.845a1.179,1.179,0,0,0-1.158.958,17.5,17.5,0,0,1-2.735,6.62,1.179,1.179,0,0,0,.14,1.5l2.739,2.738L63.5,43.258l-2.736-2.739a1.179,1.179,0,0,0-1.5-.14,17.5,17.5,0,0,1-6.62,2.735,1.179,1.179,0,0,0-.958,1.158v3.879H46.971V44.27a1.179,1.179,0,0,0-.958-1.158,17.5,17.5,0,0,1-6.62-2.735,1.179,1.179,0,0,0-1.5.14l-2.738,2.739-3.335-3.335,2.739-2.736a1.179,1.179,0,0,0,.14-1.5,17.5,17.5,0,0,1-2.735-6.62,1.179,1.179,0,0,0-1.158-.961H26.932V23.4h3.879a1.179,1.179,0,0,0,1.158-.958,17.5,17.5,0,0,1,2.735-6.62,1.179,1.179,0,0,0-.14-1.5l-2.739-2.738,3.335-3.335,2.736,2.739a1.179,1.179,0,0,0,1.5.14,17.5,17.5,0,0,1,6.62-2.735,1.179,1.179,0,0,0,.961-1.158V3.357h4.715V7.237a1.179,1.179,0,0,0,.958,1.158,17.5,17.5,0,0,1,6.62,2.735,1.179,1.179,0,0,0,1.5-.14L63.5,8.249l3.335,3.335L64.093,14.32a1.179,1.179,0,0,0-.14,1.5,17.5,17.5,0,0,1,2.735,6.62,1.179,1.179,0,0,0,1.158.958h3.879Z" transform="translate(0)" fill="#336807"/>
    <path id="Path_419" data-name="Path 419" d="M44.324,9A15.324,15.324,0,1,0,59.647,24.324,15.324,15.324,0,0,0,44.324,9ZM45.5,31.134v6.1c-.389.035-.78.06-1.179.06s-.79-.025-1.179-.06v-6.1a1.179,1.179,0,0,0-.771-1.106A6.181,6.181,0,0,1,38.43,24.2a6.306,6.306,0,0,1,2.357-4.951V24.2a1.179,1.179,0,0,0,.329.817l2.357,2.454a1.213,1.213,0,0,0,1.7,0l2.357-2.454a1.179,1.179,0,0,0,.329-.817V19.247A6.306,6.306,0,0,1,50.217,24.2a6.181,6.181,0,0,1-3.944,5.831A1.179,1.179,0,0,0,45.5,31.134Zm2.357,5.658V31.91a8.658,8.658,0,0,0-.772-15.764A1.179,1.179,0,0,0,45.5,17.251v6.472l-1.179,1.227-1.179-1.227V17.251a1.179,1.179,0,0,0-1.585-1.106,8.658,8.658,0,0,0-.772,15.764v4.878a12.966,12.966,0,1,1,7.072,0Z" transform="translate(5.005 1.43)" fill="#7bad13"/>
  </g>
</svg>
