<svg xmlns="http://www.w3.org/2000/svg" width="18.295" height="18.291" viewBox="0 0 18.295 18.291">
  <g id="noun_menu_1226743" transform="translate(-11.52 -11.53)">
    <path id="Path_403" data-name="Path 403" d="M18.343,11.53H13.184a1.664,1.664,0,0,0-1.664,1.664V18.35a1.664,1.664,0,0,0,1.664,1.664h5.159a1.664,1.664,0,0,0,1.664-1.664V13.194a1.664,1.664,0,0,0-1.664-1.664Zm-.238,6.583H13.422V13.432h4.683Z" transform="translate(0 0)" fill="#fff"/>
    <path id="Path_404" data-name="Path 404" d="M59.6,11.53H54.444a1.664,1.664,0,0,0-1.664,1.664V18.35a1.664,1.664,0,0,0,1.664,1.664H59.6a1.664,1.664,0,0,0,1.664-1.664V13.194A1.664,1.664,0,0,0,59.6,11.53Zm-.238,6.583H54.682V13.432h4.683Z" transform="translate(-31.451 0)" fill="#fff"/>
    <path id="Path_405" data-name="Path 405" d="M18.343,52.78H13.184a1.664,1.664,0,0,0-1.664,1.664V59.6a1.664,1.664,0,0,0,1.664,1.664h5.159A1.664,1.664,0,0,0,20.007,59.6V54.444A1.664,1.664,0,0,0,18.343,52.78Zm-.238,6.583H13.422V54.682h4.683Z" transform="translate(0 -31.444)" fill="#fff"/>
    <path id="Path_406" data-name="Path 406" d="M59.6,52.78H54.444a1.664,1.664,0,0,0-1.664,1.664V59.6a1.664,1.664,0,0,0,1.664,1.664H59.6A1.664,1.664,0,0,0,61.267,59.6V54.444A1.664,1.664,0,0,0,59.6,52.78Zm-.238,6.583H54.682V54.682h4.683Z" transform="translate(-31.451 -31.444)" fill="#fff"/>
  </g>
</svg>
