<svg xmlns="http://www.w3.org/2000/svg" width="71.917" height="71.918" viewBox="0 0 71.917 71.918">
  <g id="noun_technical_2830003" transform="translate(-2.001 -2)">
    <path id="Path_430" data-name="Path 430" d="M35.993,19.986A5.993,5.993,0,1,0,30,13.993,6,6,0,0,0,35.993,19.986Zm0-9.589a3.6,3.6,0,1,1-3.6,3.6A3.6,3.6,0,0,1,35.993,10.4Z" transform="translate(5.562 1.192)" fill="#7daf14"/>
    <path id="Path_431" data-name="Path 431" d="M26.433,49.392a15.575,15.575,0,0,0-9.458-28.381A15.788,15.788,0,0,0,2,36.218,15.546,15.546,0,0,0,8.718,49.384a1.141,1.141,0,0,1,.473.948V54.3a3.571,3.571,0,0,0,.424,5.662,3.383,3.383,0,0,0-.424,1.616v.356a3.412,3.412,0,0,0,2.5,3.278,5.978,5.978,0,0,0,11.773,0,3.412,3.412,0,0,0,2.5-3.278v-.356a3.383,3.383,0,0,0-.424-1.616,3.57,3.57,0,0,0,.424-5.661V50.333A1.134,1.134,0,0,1,26.433,49.392ZM17.582,67.747a3.591,3.591,0,0,1-3.375-2.4h6.75A3.588,3.588,0,0,1,17.582,67.747Zm5.993-5.816a1.022,1.022,0,0,1-1.021,1.021H12.609a1.022,1.022,0,0,1-1.02-1.021v-.356a1.022,1.022,0,0,1,1.021-1.02h9.945a1.022,1.022,0,0,1,1.02,1.021Zm0-3.773H11.589a1.2,1.2,0,1,1,0-2.4H23.575a1.2,1.2,0,1,1,0,2.4ZM16.384,37.565h2.4a2.418,2.418,0,0,0,2.4-2.433V31.408a6.285,6.285,0,0,1,2.4,4.959,6.206,6.206,0,0,1-4.006,5.853,1.2,1.2,0,0,0-.789,1.127V53.363h-2.4V43.355a1.2,1.2,0,0,0-.795-1.128,6.156,6.156,0,0,1-3.874-4.564,6.343,6.343,0,0,1,2.271-6.26v3.73A2.418,2.418,0,0,0,16.384,37.565Zm8.686,9.855a3.526,3.526,0,0,0-1.495,2.914v3.029h-2.4V44.138a8.682,8.682,0,0,0-.789-15.874,1.2,1.2,0,0,0-1.609,1.127v5.777l-2.4-.036V29.391a1.2,1.2,0,0,0-1.61-1.126,8.627,8.627,0,0,0-5.413,9.853,8.506,8.506,0,0,0,4.626,6.033v9.213h-2.4V50.332a3.541,3.541,0,0,0-1.5-2.919A13.157,13.157,0,0,1,4.4,36.273,13.356,13.356,0,0,1,17.064,23.408,13.175,13.175,0,0,1,25.07,47.421Z" transform="translate(0 3.774)" fill="#336807"/>
    <path id="Path_432" data-name="Path 432" d="M25.2,18.781h1.824a10.788,10.788,0,0,0,.433,1.046l-1.29,1.291a1.2,1.2,0,0,0,0,1.695L29.557,26.2a1.2,1.2,0,0,0,1.695,0l1.291-1.29a10.789,10.789,0,0,0,1.046.433v1.824a1.2,1.2,0,0,0,1.2,1.2h4.795a1.2,1.2,0,0,0,1.2-1.2V25.347a10.788,10.788,0,0,0,1.046-.433l1.291,1.29a1.2,1.2,0,0,0,1.695,0L48.2,22.813a1.2,1.2,0,0,0,0-1.695l-1.29-1.291a10.789,10.789,0,0,0,.433-1.046h1.824a1.2,1.2,0,0,0,1.2-1.2V12.788a1.2,1.2,0,0,0-1.2-1.2H47.347a10.789,10.789,0,0,0-.433-1.046L48.2,9.252a1.2,1.2,0,0,0,0-1.695L44.813,4.166a1.2,1.2,0,0,0-1.695,0l-1.291,1.29q-.511-.241-1.046-.433V3.2a1.2,1.2,0,0,0-1.2-1.2H34.788a1.2,1.2,0,0,0-1.2,1.2V5.023a10.788,10.788,0,0,0-1.046.433L31.252,4.167a1.2,1.2,0,0,0-1.695,0L26.166,7.558a1.2,1.2,0,0,0,0,1.695l1.29,1.291a11.266,11.266,0,0,0-.433,1.045H25.2a1.2,1.2,0,0,0-1.2,1.2v4.795A1.2,1.2,0,0,0,25.2,18.781Zm1.2-4.795H27.91a1.2,1.2,0,0,0,1.16-.9,8.3,8.3,0,0,1,.893-2.156,1.2,1.2,0,0,0-.185-1.456L28.709,8.405l1.7-1.7,1.069,1.069a1.194,1.194,0,0,0,1.456.185,8.337,8.337,0,0,1,2.156-.893,1.2,1.2,0,0,0,.9-1.16V4.4h2.4V5.91a1.2,1.2,0,0,0,.9,1.16,8.3,8.3,0,0,1,2.156.893A1.2,1.2,0,0,0,42.9,7.779l1.069-1.069,1.7,1.7L44.591,9.475a1.2,1.2,0,0,0-.185,1.456,8.337,8.337,0,0,1,.893,2.156,1.2,1.2,0,0,0,1.16.9h1.513v2.4H46.46a1.2,1.2,0,0,0-1.16.9,8.3,8.3,0,0,1-.893,2.156,1.2,1.2,0,0,0,.185,1.456l1.069,1.069-1.7,1.7L42.9,22.591a1.2,1.2,0,0,0-1.456-.185,8.337,8.337,0,0,1-2.156.893,1.2,1.2,0,0,0-.9,1.16v1.513h-2.4V24.46a1.2,1.2,0,0,0-.9-1.16,8.3,8.3,0,0,1-2.156-.893,1.2,1.2,0,0,0-1.456.185l-1.069,1.069-1.7-1.7L29.779,20.9a1.2,1.2,0,0,0,.185-1.456,8.337,8.337,0,0,1-.893-2.156,1.2,1.2,0,0,0-1.16-.9H26.4Z" transform="translate(4.37)" fill="#7daf14"/>
    <path id="Path_433" data-name="Path 433" d="M51.993,32a5.993,5.993,0,1,0,5.993,5.993A6,6,0,0,0,51.993,32Zm0,9.589a3.6,3.6,0,1,1,3.6-3.6A3.6,3.6,0,0,1,51.993,41.589Z" transform="translate(8.74 5.959)" fill="#7daf14"/>
    <path id="Path_434" data-name="Path 434" d="M65.171,35.589H63.347a10.789,10.789,0,0,0-.433-1.046l1.29-1.291a1.2,1.2,0,0,0,0-1.695l-3.391-3.391a1.2,1.2,0,0,0-1.695,0l-1.291,1.29a10.79,10.79,0,0,0-1.046-.433V27.2a1.2,1.2,0,0,0-1.2-1.2H50.788a1.2,1.2,0,0,0-1.2,1.2v1.824a10.789,10.789,0,0,0-1.046.433l-1.291-1.29a1.2,1.2,0,0,0-1.695,0l-3.391,3.391a1.2,1.2,0,0,0,0,1.695l1.29,1.291a10.789,10.789,0,0,0-.433,1.046H41.2a1.2,1.2,0,0,0-1.2,1.2v4.795a1.2,1.2,0,0,0,1.2,1.2h1.824a10.789,10.789,0,0,0,.433,1.046l-1.29,1.291a1.2,1.2,0,0,0,0,1.695L45.557,50.2a1.2,1.2,0,0,0,1.695,0l1.291-1.29a10.789,10.789,0,0,0,1.046.433v1.824a1.2,1.2,0,0,0,1.2,1.2h4.795a1.2,1.2,0,0,0,1.2-1.2V49.347a10.79,10.79,0,0,0,1.046-.433l1.291,1.29a1.2,1.2,0,0,0,1.695,0L64.2,46.813a1.2,1.2,0,0,0,0-1.695l-1.29-1.291a10.789,10.789,0,0,0,.433-1.046h1.824a1.2,1.2,0,0,0,1.2-1.2V36.788A1.2,1.2,0,0,0,65.171,35.589Zm-1.2,4.795H62.46a1.2,1.2,0,0,0-1.16.9,8.3,8.3,0,0,1-.893,2.156,1.2,1.2,0,0,0,.185,1.456l1.069,1.069-1.7,1.7L58.9,46.591a1.2,1.2,0,0,0-1.456-.185,8.337,8.337,0,0,1-2.156.893,1.2,1.2,0,0,0-.9,1.16v1.513h-2.4V48.46a1.2,1.2,0,0,0-.9-1.16,8.3,8.3,0,0,1-2.156-.893,1.2,1.2,0,0,0-1.456.185l-1.069,1.069-1.7-1.7L45.779,44.9a1.2,1.2,0,0,0,.185-1.456,8.337,8.337,0,0,1-.893-2.156,1.2,1.2,0,0,0-1.16-.9H42.4v-2.4H43.91a1.2,1.2,0,0,0,1.16-.9,8.3,8.3,0,0,1,.893-2.156,1.2,1.2,0,0,0-.185-1.456l-1.069-1.069,1.7-1.7,1.069,1.069a1.2,1.2,0,0,0,1.456.185,8.337,8.337,0,0,1,2.156-.893,1.2,1.2,0,0,0,.9-1.16V28.4h2.4V29.91a1.2,1.2,0,0,0,.9,1.16,8.3,8.3,0,0,1,2.156.893,1.2,1.2,0,0,0,1.456-.185l1.069-1.069,1.7,1.7-1.069,1.069a1.2,1.2,0,0,0-.185,1.456,8.337,8.337,0,0,1,.893,2.156,1.2,1.2,0,0,0,1.16.9h1.513Z" transform="translate(7.548 4.767)" fill="#7daf14"/>
    <rect id="Rectangle_414" data-name="Rectangle 414" width="3" height="2" transform="translate(16 20)" fill="#7daf14"/>
    <rect id="Rectangle_415" data-name="Rectangle 415" width="3" height="3" transform="translate(22 10)" fill="#7daf14"/>
    <rect id="Rectangle_416" data-name="Rectangle 416" width="3" height="2" transform="translate(58 14)" fill="#7daf14"/>
    <rect id="Rectangle_417" data-name="Rectangle 417" width="3" height="2" transform="translate(63 25)" fill="#7daf14"/>
    <rect id="Rectangle_418" data-name="Rectangle 418" width="3" height="2" transform="translate(40 36)" fill="#7daf14"/>
    <rect id="Rectangle_419" data-name="Rectangle 419" width="2" height="3" transform="translate(68 4)" fill="#7daf14"/>
  </g>
</svg>
