<svg xmlns="http://www.w3.org/2000/svg" width="73.765" height="73.765" viewBox="0 0 73.765 73.765">
  <g id="noun_maintenance_3151795" transform="translate(-6)">
    <g id="Group_135" data-name="Group 135" transform="translate(5 -1)">
      <path id="Path_420" data-name="Path 420" d="M12.949,50.9A5.949,5.949,0,1,0,7,44.949,5.956,5.956,0,0,0,12.949,50.9Zm0-9.518A3.569,3.569,0,1,1,9.38,44.949,3.574,3.574,0,0,1,12.949,41.38Z" transform="translate(1.139 7.211)" fill="#7daf14"/>
      <path id="Path_421" data-name="Path 421" d="M74.765,58.976V50.1l-3.253-1.042a17.919,17.919,0,0,0-1.093-2.652l1.561-3.033L65.705,37.1l-2.094,1.078A10.675,10.675,0,0,0,60.9,35.226a3.728,3.728,0,0,1-1.6-2.976V22.416a2.382,2.382,0,0,0,2.38-2.38v-2.38a2.382,2.382,0,0,0-2.38-2.38V5.759a4.759,4.759,0,0,0-9.518,0v9.518H44.8a3.564,3.564,0,0,0-3.35-2.38H27.83a3.518,3.518,0,0,0-3.352-2.38H19.484a3.572,3.572,0,0,0-3.447,2.65L7.982,43.376a10.678,10.678,0,0,0-2.222,15.5v8.751H4.569A3.574,3.574,0,0,0,1,71.2v3.569H31.934V71.2a3.574,3.574,0,0,0-3.569-3.569H26.79L22.98,58.116a10.648,10.648,0,0,0,.882-10.308L26.738,24.8H41.452a3.564,3.564,0,0,0,3.35-2.38H49.78V32.25a3.726,3.726,0,0,1-1.6,2.974,10.7,10.7,0,0,0-2.708,2.953L43.374,37.1,37.1,43.374l1.561,3.033a17.971,17.971,0,0,0-1.093,2.652L34.313,50.1v8.874l3.253,1.042a17.813,17.813,0,0,0,1.093,2.652L37.1,65.7l6.275,6.274,3.033-1.56a17.813,17.813,0,0,0,2.652,1.093L50.1,74.765h8.874l1.042-3.253a17.814,17.814,0,0,0,2.652-1.093l3.033,1.56,6.275-6.274-1.561-3.033a17.865,17.865,0,0,0,1.093-2.652ZM49.184,53.189l.276.161h2.7V45.888a.868.868,0,0,1,.867-.867h3.026a.868.868,0,0,1,.866.867v7.461h2.7l.276-.161a10.684,10.684,0,0,0,3.925-3.97,10.708,10.708,0,1,1-18.56,0A10.675,10.675,0,0,0,49.184,53.189ZM59.3,20.036H45.021v-2.38H59.3ZM52.16,5.759a2.38,2.38,0,0,1,4.759,0v9.518H52.16ZM19.484,12.9h4.995a1.188,1.188,0,0,1,1.18,1.337l-.427,3.422H17.3l1.034-3.875A1.189,1.189,0,0,1,19.484,12.9Zm-5.4,30.934A8.328,8.328,0,1,1,5.759,52.16,8.339,8.339,0,0,1,14.087,43.831ZM29.554,71.2v1.19H3.38V71.2a1.19,1.19,0,0,1,1.19-1.19h23.8A1.19,1.19,0,0,1,29.554,71.2ZM8.139,67.626v-6.57a10.658,10.658,0,0,0,13.081-.933l3.007,7.5Zm5.949-26.175a10.683,10.683,0,0,0-3.268.514l5.848-21.93h8.268L21.84,44.8A10.664,10.664,0,0,0,14.087,41.452ZM42.642,21.226a1.191,1.191,0,0,1-1.19,1.19H27.035l.892-7.139H41.452a1.191,1.191,0,0,1,1.19,1.19Zm6.951,15.912A6.08,6.08,0,0,0,52.16,32.25V22.416h4.759V32.25a6.08,6.08,0,0,0,2.568,4.888,8.25,8.25,0,0,1,3.381,6.694A8.458,8.458,0,0,1,59.3,50.749V45.887a3.25,3.25,0,0,0-3.247-3.246H53.026a3.25,3.25,0,0,0-3.246,3.247V50.75a8.46,8.46,0,0,1-3.569-6.917A8.251,8.251,0,0,1,49.592,37.138Zm19.99,21-.174.615a15.437,15.437,0,0,1-1.371,3.328l-.313.557,1.344,2.612-3.822,3.82-2.612-1.343-.557.313a15.438,15.438,0,0,1-3.328,1.371l-.615.174-.9,2.8h-5.4l-.9-2.8-.615-.174A15.438,15.438,0,0,1,47,68.038l-.557-.313L43.83,69.068l-3.821-3.82,1.344-2.612-.313-.557a15.438,15.438,0,0,1-1.371-3.328l-.174-.615-2.8-.9v-5.4l2.8-.9.174-.615A15.336,15.336,0,0,1,41.041,47l.312-.558-1.344-2.61,3.822-3.82.608.313a10.622,10.622,0,0,0-.607,3.509,10.859,10.859,0,0,0,.355,2.735,13.063,13.063,0,0,0,10.353,21.06A13.365,13.365,0,0,0,59.847,66.5a13.054,13.054,0,0,0,5.045-19.934,10.86,10.86,0,0,0,.355-2.735,10.622,10.622,0,0,0-.607-3.509l.608-.313,3.822,3.82-1.344,2.61.312.558a15.336,15.336,0,0,1,1.372,3.328l.174.615,2.8.9v5.4Z" fill="#336807"/>
      <rect id="Rectangle_410" data-name="Rectangle 410" width="2.38" height="2.378" transform="translate(18.374 24.492) rotate(-77.907)" fill="#7bad13"/>
      <rect id="Rectangle_411" data-name="Rectangle 411" width="2.38" height="2.378" transform="translate(15.383 38.452) rotate(-77.907)" fill="#7bad13"/>
      <rect id="Rectangle_412" data-name="Rectangle 412" width="2.38" height="2.378" transform="translate(17.377 29.145) rotate(-77.907)" fill="#7bad13"/>
      <rect id="Rectangle_413" data-name="Rectangle 413" width="2.38" height="2.38" transform="translate(16.379 33.799) rotate(-77.878)" fill="#7bad13"/>
    </g>
  </g>
</svg>
