<svg xmlns="http://www.w3.org/2000/svg" width="73.664" height="68.955" viewBox="0 0 73.664 68.955">
  <g id="noun_plumbing_3127387" transform="translate(-1 -4.238)">
    <g id="Group_137" data-name="Group 137" transform="translate(2.5 5.761)">
      <path id="Path_435" data-name="Path 435" d="M36.567,28.549V24.756H39.84a2.678,2.678,0,1,0,0-5.356h-11.9a2.678,2.678,0,1,0,0,5.356h3.2v3.794a9.273,9.273,0,0,0-5.281,3.868H24.294A18.649,18.649,0,0,0,5.922,48.261H3.988A1.492,1.492,0,0,0,2.5,49.748v2.38a1.492,1.492,0,0,0,1.488,1.488H18.269a1.492,1.492,0,0,0,1.488-1.488v-2.38a1.492,1.492,0,0,0-1.488-1.488H17a7.732,7.732,0,0,1,7.141-5.132h1.711a9.692,9.692,0,0,0,7.959,4.24,9.828,9.828,0,0,0,8.033-4.24H51V32.417H41.849A9.273,9.273,0,0,0,36.567,28.549Z" transform="translate(-2.5 -9.255)" fill="none" stroke="#336807" stroke-width="3"/>
      <path id="Path_436" data-name="Path 436" d="M13.783,72.318A1.6,1.6,0,0,0,12.37,71.5a1.53,1.53,0,0,0-1.413.893s-3.124,6.1-3.868,7.587a5.913,5.913,0,0,0,5.281,8.554,5.427,5.427,0,0,0,2.6-.669,5.533,5.533,0,0,0,2.9-3.422,5.793,5.793,0,0,0-.3-4.463Z" transform="translate(-3.518 -22.601)" fill="none" stroke="#7daf14" stroke-width="3"/>
      <path id="Path_437" data-name="Path 437" d="M84.913,53.023V24.311A10.735,10.735,0,0,0,84.69,5.864a.8.8,0,0,0-1.19.744v6.174a4.407,4.407,0,0,1-3.719,4.389,4.267,4.267,0,0,1-4.835-4.24V6.608a.829.829,0,0,0-1.19-.744,10.783,10.783,0,0,0-5.356,9.3,10.588,10.588,0,0,0,5.132,9.149V52.949A10.735,10.735,0,0,0,73.756,71.4a.8.8,0,0,0,1.19-.744V64.478a4.407,4.407,0,0,1,3.719-4.389,4.267,4.267,0,0,1,4.835,4.24v6.323a.829.829,0,0,0,1.19.744,10.783,10.783,0,0,0,5.356-9.3A10.556,10.556,0,0,0,84.913,53.023Z" transform="translate(-19.382 -5.761)" fill="none" stroke="#7daf14" stroke-width="3"/>
    </g>
  </g>
</svg>
