<svg xmlns="http://www.w3.org/2000/svg" width="72.217" height="72.217" viewBox="0 0 72.217 72.217">
  <g id="noun_maintenance_schedule_3631786" data-name="noun_maintenance schedule_3631786" transform="translate(5.109 -7.686)">
    <g id="Group_136" data-name="Group 136" transform="translate(-6.109 6.686)">
      <path id="Path_422" data-name="Path 422" d="M32.978,29H21.33A2.332,2.332,0,0,0,19,31.33v2.33a2.332,2.332,0,0,0,2.33,2.33H32.978a2.332,2.332,0,0,0,2.33-2.33V31.33A2.332,2.332,0,0,0,32.978,29Zm-4.659,2.33v2.33h-2.33V31.33Zm-6.989,0h2.33v2.33H21.33Zm9.318,2.33V31.33h2.33v2.33Z" transform="translate(2.966 4.614)" fill="#7bad13"/>
      <path id="Path_423" data-name="Path 423" d="M42.494,29a3.494,3.494,0,1,0,3.494,3.494A3.5,3.5,0,0,0,42.494,29Zm0,4.659a1.165,1.165,0,1,1,1.165-1.165A1.166,1.166,0,0,1,42.494,33.659Z" transform="translate(6.262 4.614)" fill="#7bad13"/>
      <path id="Path_424" data-name="Path 424" d="M42.494,53a3.494,3.494,0,1,0,3.494,3.494A3.5,3.5,0,0,0,42.494,53Zm0,4.659a1.165,1.165,0,1,1,1.165-1.165A1.166,1.166,0,0,1,42.494,57.659Z" transform="translate(6.262 8.569)" fill="#7bad13"/>
      <path id="Path_425" data-name="Path 425" d="M32.978,53H21.33A2.332,2.332,0,0,0,19,55.33v2.33a2.332,2.332,0,0,0,2.33,2.33H32.978a2.332,2.332,0,0,0,2.33-2.33V55.33A2.332,2.332,0,0,0,32.978,53Zm-4.659,2.33v2.33h-2.33V55.33Zm-6.989,0h2.33v2.33H21.33Zm9.318,2.33V55.33h2.33v2.33Z" transform="translate(2.966 8.569)" fill="#7bad13"/>
      <path id="Path_426" data-name="Path 426" d="M33.33,47.989H44.978a2.332,2.332,0,0,0,2.33-2.33V43.33A2.332,2.332,0,0,0,44.978,41H33.33A2.332,2.332,0,0,0,31,43.33v2.33A2.332,2.332,0,0,0,33.33,47.989Zm4.659-2.33V43.33h2.33v2.33Zm6.989,0h-2.33V43.33h2.33ZM33.33,43.33h2.33v2.33H33.33V43.33Z" transform="translate(4.944 6.592)" fill="#7bad13"/>
      <path id="Path_427" data-name="Path 427" d="M22.494,47.989A3.494,3.494,0,1,0,19,44.494,3.5,3.5,0,0,0,22.494,47.989Zm0-4.659a1.165,1.165,0,1,1-1.165,1.165A1.166,1.166,0,0,1,22.494,43.33Z" transform="translate(2.966 6.592)" fill="#7bad13"/>
      <path id="Path_428" data-name="Path 428" d="M16.494,20.648H39.887a1.24,1.24,0,0,1,1.046.656,8.14,8.14,0,0,0,13.806.344l.193-.292V18.318H50.273a1.165,1.165,0,0,1,0-2.33h4.659V12.952l-.193-.292A8.139,8.139,0,0,0,40.933,13a1.241,1.241,0,0,1-1.046.655H16.494a3.494,3.494,0,1,0,0,6.989Zm0-4.659H39.887a3.544,3.544,0,0,0,3.051-1.8,5.809,5.809,0,0,1,9.657-.531H50.273a3.494,3.494,0,0,0,0,6.989h2.321a5.809,5.809,0,0,1-9.656-.53,3.546,3.546,0,0,0-3.052-1.8H16.494a1.165,1.165,0,0,1,0-2.33Z" transform="translate(1.978 1.318)" fill="#7bad13"/>
      <path id="Path_429" data-name="Path 429" d="M69.723,47.592a3.49,3.49,0,0,0-3.28,2.33H56.91v-2.33h4.659V40.6h2.544a3.494,3.494,0,1,0,0-2.33H59.24v6.989H56.91V33.614H63.9a9.318,9.318,0,0,0,0-18.637,9.155,9.155,0,0,0-1.906.2A13.949,13.949,0,0,0,40.344,8.488a16.3,16.3,0,0,0-29.339,4.17,10.483,10.483,0,0,0,.478,20.956h5.824V45.262h-2.33V38.273H10.1a3.494,3.494,0,1,0,0,2.33h2.544v6.989h4.659v2.33H7.774a3.494,3.494,0,1,0,0,2.33h9.533v2.33H12.648v6.989H10.1a3.494,3.494,0,1,0,0,2.33h4.873V56.91h2.33V69.723a3.376,3.376,0,0,0,3.236,3.494H53.674a3.376,3.376,0,0,0,3.236-3.494V56.91h2.33V63.9h4.873a3.494,3.494,0,1,0,0-2.33H61.569V54.58H56.91v-2.33h9.533a3.488,3.488,0,1,0,3.28-4.659Zm-2.33-9.318a1.165,1.165,0,1,1-1.165,1.165A1.166,1.166,0,0,1,67.393,38.273ZM6.824,40.6a1.165,1.165,0,1,1,1.165-1.165A1.166,1.166,0,0,1,6.824,40.6ZM4.494,52.251a1.165,1.165,0,1,1,1.165-1.165A1.166,1.166,0,0,1,4.494,52.251ZM6.824,63.9a1.165,1.165,0,1,1,1.165-1.165A1.166,1.166,0,0,1,6.824,63.9Zm60.569-2.33a1.165,1.165,0,1,1-1.165,1.165A1.166,1.166,0,0,1,67.393,61.569ZM54.58,42.933H19.637V32.449a1.075,1.075,0,0,1,.906-1.165H53.674a1.075,1.075,0,0,1,.906,1.165Zm0,2.33V56.91H19.637V45.262ZM3.33,23.131a8.163,8.163,0,0,1,8.154-8.154c.061,0,.121,0,.181.009l1.148.05.22-.938A13.972,13.972,0,0,1,39,10.8l.92,1.168.912-.849a11.622,11.622,0,0,1,19.232,5.767l.3,1.252,1.215-.427A6.986,6.986,0,1,1,63.9,31.285H56.711a3.259,3.259,0,0,0-3.037-2.33H20.543a3.258,3.258,0,0,0-3.037,2.33H11.483A8.163,8.163,0,0,1,3.33,23.131ZM53.674,70.888H20.543a1.075,1.075,0,0,1-.906-1.165V59.24H54.58V69.723A1.075,1.075,0,0,1,53.674,70.888ZM69.723,52.251a1.165,1.165,0,1,1,1.165-1.165A1.166,1.166,0,0,1,69.723,52.251Z" transform="translate(0 0)" fill="#336807"/>
    </g>
  </g>
</svg>
