<svg xmlns="http://www.w3.org/2000/svg" width="61.287" height="61.287" viewBox="0 0 61.287 61.287">
  <path id="Icon_material-track-changes" data-name="Icon material-track-changes" d="M55.308,11.979,50.988,16.3A24.542,24.542,0,1,1,30.579,9.343v6.19a18.383,18.383,0,1,0,16.057,5.117l-4.321,4.321a12.288,12.288,0,1,1-11.736-3.156v6.558a6.067,6.067,0,0,0-3.064,5.271,6.129,6.129,0,1,0,12.257,0,6.03,6.03,0,0,0-3.064-5.271V3H33.643a30.655,30.655,0,1,0,21.665,8.979Z" transform="translate(-3 -3)" fill="#81b214"/>
</svg>
