<svg id="Group_85" data-name="Group 85" xmlns="http://www.w3.org/2000/svg" width="71" height="77.852" viewBox="0 0 71 77.852">
  <path id="Path_359" data-name="Path 359" d="M345.7,162.935H281.761a3.522,3.522,0,0,1-3.53-3.507v-16.9a3.522,3.522,0,0,1,3.53-3.507H345.7a3.522,3.522,0,0,1,3.53,3.507v16.9A3.522,3.522,0,0,1,345.7,162.935Zm-60.432-7.014h56.925v-9.889H285.269Z" transform="translate(-278.231 -139.019)" fill="#81b214"/>
  <rect id="Rectangle_355" data-name="Rectangle 355" width="9.407" height="9.405" transform="translate(58.09 27.752)" fill="#81b214"/>
  <rect id="Rectangle_356" data-name="Rectangle 356" width="9.407" height="9.405" transform="translate(44.438 27.752)" fill="#81b214"/>
  <rect id="Rectangle_357" data-name="Rectangle 357" width="9.407" height="9.405" transform="translate(30.808 27.752)" fill="#81b214"/>
  <rect id="Rectangle_358" data-name="Rectangle 358" width="9.407" height="9.396" transform="translate(58.09 41.323)" fill="#81b214"/>
  <rect id="Rectangle_359" data-name="Rectangle 359" width="9.407" height="9.396" transform="translate(44.438 41.323)" fill="#81b214"/>
  <rect id="Rectangle_360" data-name="Rectangle 360" width="9.407" height="9.396" transform="translate(30.808 41.323)" fill="#81b214"/>
  <rect id="Rectangle_361" data-name="Rectangle 361" width="9.407" height="9.396" transform="translate(17.155 41.323)" fill="#81b214"/>
  <rect id="Rectangle_362" data-name="Rectangle 362" width="9.407" height="9.396" transform="translate(3.526 41.323)" fill="#81b214"/>
  <rect id="Rectangle_363" data-name="Rectangle 363" width="9.407" height="9.405" transform="translate(58.09 54.885)" fill="#81b214"/>
  <rect id="Rectangle_364" data-name="Rectangle 364" width="9.407" height="9.405" transform="translate(44.438 54.885)" fill="#81b214"/>
  <rect id="Rectangle_365" data-name="Rectangle 365" width="9.407" height="9.405" transform="translate(30.808 54.885)" fill="#81b214"/>
  <rect id="Rectangle_366" data-name="Rectangle 366" width="9.407" height="9.405" transform="translate(17.155 54.885)" fill="#81b214"/>
  <rect id="Rectangle_367" data-name="Rectangle 367" width="9.407" height="9.405" transform="translate(3.526 54.885)" fill="#81b214"/>
  <rect id="Rectangle_368" data-name="Rectangle 368" width="9.407" height="9.393" transform="translate(44.438 68.458)" fill="#81b214"/>
  <rect id="Rectangle_369" data-name="Rectangle 369" width="9.407" height="9.393" transform="translate(30.808 68.458)" fill="#81b214"/>
  <rect id="Rectangle_370" data-name="Rectangle 370" width="9.407" height="9.393" transform="translate(17.155 68.458)" fill="#81b214"/>
  <rect id="Rectangle_371" data-name="Rectangle 371" width="9.407" height="9.393" transform="translate(3.526 68.458)" fill="#81b214"/>
</svg>
